<mxfile host="app.diagrams.net" modified="2024-05-30T13:26:59.255Z" agent="Mozilla/5.0 (Windows NT 10.0; Win64; x64) AppleWebKit/537.36 (KHTML, like Gecko) Chrome/125.0.0.0 Safari/537.36" etag="aIwqXlsQBK7l1VAXo1oH" version="24.4.10" type="github">
  <diagram name="‫עמוד-1‬" id="RQlelCMoxbot6VKj3f5x">
    <mxGraphModel dx="607" dy="299" grid="1" gridSize="10" guides="1" tooltips="1" connect="1" arrows="1" fold="1" page="1" pageScale="1" pageWidth="827" pageHeight="1169" math="0" shadow="0">
      <root>
        <mxCell id="0" />
        <mxCell id="1" parent="0" />
        <mxCell id="oilT0z-JuCqOS-5cFwj9-1" value="" style="whiteSpace=wrap;html=1;aspect=fixed;" vertex="1" parent="1">
          <mxGeometry x="100" y="55" width="160" height="160" as="geometry" />
        </mxCell>
        <mxCell id="oilT0z-JuCqOS-5cFwj9-2" value="" style="whiteSpace=wrap;html=1;aspect=fixed;" vertex="1" parent="1">
          <mxGeometry x="100" y="230" width="160" height="160" as="geometry" />
        </mxCell>
        <mxCell id="oilT0z-JuCqOS-5cFwj9-3" value="" style="rounded=0;whiteSpace=wrap;html=1;" vertex="1" parent="1">
          <mxGeometry x="120" y="70" width="120" height="60" as="geometry" />
        </mxCell>
        <mxCell id="oilT0z-JuCqOS-5cFwj9-4" value="" style="rounded=1;whiteSpace=wrap;html=1;" vertex="1" parent="1">
          <mxGeometry x="152.5" y="160" width="55" height="20" as="geometry" />
        </mxCell>
        <mxCell id="oilT0z-JuCqOS-5cFwj9-5" value="" style="rounded=0;whiteSpace=wrap;html=1;" vertex="1" parent="1">
          <mxGeometry x="100" y="230" width="80" height="160" as="geometry" />
        </mxCell>
        <mxCell id="oilT0z-JuCqOS-5cFwj9-7" style="edgeStyle=orthogonalEdgeStyle;rounded=0;orthogonalLoop=1;jettySize=auto;html=1;exitX=0.5;exitY=1;exitDx=0;exitDy=0;" edge="1" parent="1" source="oilT0z-JuCqOS-5cFwj9-6" target="oilT0z-JuCqOS-5cFwj9-1">
          <mxGeometry relative="1" as="geometry" />
        </mxCell>
        <mxCell id="oilT0z-JuCqOS-5cFwj9-6" value="" style="rounded=0;whiteSpace=wrap;html=1;" vertex="1" parent="1">
          <mxGeometry x="156.25" y="140" width="47.5" height="10" as="geometry" />
        </mxCell>
      </root>
    </mxGraphModel>
  </diagram>
</mxfile>
